<?xml version="1.0" encoding="iso-8859-1"?>
<!-- Generator: Adobe Illustrator 19.0.0, SVG Export Plug-In . SVG Version: 6.00 Build 0)  -->
<svg version="1.1" id="Capa_1" xmlns="http://www.w3.org/2000/svg" xmlns:xlink="http://www.w3.org/1999/xlink" x="0px" y="0px"
	 viewBox="0 0 480 480" style="enable-background:new 0 0 480 480;" xml:space="preserve">
<g>
	<g>
		<path d="M472,208.067H360c-4.418,0-8,3.582-8,8v24h-19.72l-18.512-27.768c-7.776-11.671-17.119-22.218-27.768-31.344
			c-5.778-4.857-11.904-9.285-18.328-13.248l51.36-51.36c12.034-11.884,12.155-31.274,0.271-43.308
			c-11.884-12.034-31.274-12.155-43.308-0.271c-0.092,0.091-0.184,0.182-0.275,0.275l-17.368,17.36l-24,24l-31.104,31.104
			c-0.784-0.389-1.628-0.646-2.496-0.76c-4.8-0.448-9.672-0.68-14.472-0.68H96c-2.122,0-4.156,0.844-5.656,2.344l-73.376,73.376
			c-12.034,11.884-12.157,31.274-0.273,43.308c11.884,12.034,31.274,12.157,43.308,0.273c0.093-0.092,0.185-0.184,0.277-0.277
			l7.904-7.896l2.304,7.664c1.168,3.838,2.538,7.611,4.104,11.304l-32.24,32.24l-16,16c-0.874,0.881-1.534,1.951-1.928,3.128l-16,48
			c-1.401,4.19,0.861,8.723,5.051,10.123c0.814,0.272,1.666,0.411,2.525,0.413c0.859-0.001,1.712-0.139,2.528-0.408l48-16
			c1.179-0.394,2.25-1.056,3.128-1.936l16-16l27.376-27.376c19.318,14.153,42.653,21.763,66.6,21.72H248
			c0.343-0.045,0.683-0.114,1.016-0.208c6.067,6.716,13.315,12.261,21.384,16.36c10.336,5.151,21.724,7.837,33.272,7.848H352v8
			c0,4.418,3.582,8,8,8h112c4.418,0,8-3.582,8-8v-160C480,211.648,476.418,208.067,472,208.067z M287.032,84.347
			c5.72-5.708,14.984-5.699,20.693,0.021c2.737,2.742,4.274,6.457,4.275,10.331c0.01,3.881-1.531,7.605-4.28,10.344L296,116.755
			l-20.688-20.688L287.032,84.347z M264,107.379l20.688,20.688L272,140.755l-20.688-20.688L264,107.379z M48.968,251.787
			c-5.72,5.708-14.984,5.699-20.693-0.021c-2.737-2.742-4.274-6.457-4.275-10.331c-0.01-3.881,1.531-7.605,4.28-10.344
			l71.032-71.024h86.968c0.76,0,1.536,0.096,2.304,0.112l-31.896,31.888H112c-2.122,0-4.156,0.844-5.656,2.344L48.968,251.787z
			 M140.688,208.067l-53.6,53.6c-0.392-1.144-0.904-2.272-1.248-3.424l-4.8-15.928l34.272-34.248H140.688z M59.68,353.075
			l-31.032,10.344l10.344-31.032l12-12c10.806,1.372,19.316,9.882,20.688,20.688L59.68,353.075z M84.64,328.115
			c-4.056-9.247-11.441-16.632-20.688-20.688l101.696-101.696L240,131.379l20.688,20.688l-80,80h-10.752
			c-17.58-0.046-31.869,14.168-31.915,31.749c-0.009,3.322,0.503,6.624,1.515,9.787c-0.43,0.227-0.837,0.495-1.216,0.8
			L84.64,328.115z M179.632,328.067c-19.703,0.019-38.945-5.967-55.16-17.16l23.6-23.6c5.916,5.583,13.73,8.713,21.864,8.76h49.424
			l18.28,32H179.632z M352,352.067h-48.328c-20.956,0-40.306-11.229-50.704-29.424l-22.024-38.576c-1.432-2.48-4.08-4.006-6.944-4
			h-54.064c-8.837,0-16-7.163-16-16s7.163-16,16-16H248c4.418,0,8-3.582,8-8s-3.582-8-8-8h-44.688l52.744-52.744
			c17.842,10.321,33.042,24.647,44.4,41.848l20.888,31.336c1.484,2.225,3.982,3.56,6.656,3.56h24V352.067z M464,368.067h-96v-144h96
			V368.067z"/>
	</g>
</g>
<g>
	<g>
		<circle cx="416" cy="336.067" r="16"/>
	</g>
</g>
<g>
	<g>
		<path d="M176,400.067H8c-4.418,0-8,3.582-8,8s3.582,8,8,8h168c4.418,0,8-3.582,8-8S180.418,400.067,176,400.067z"/>
	</g>
</g>
<g>
	<g>
		<path d="M216,400.067h-8c-4.418,0-8,3.582-8,8s3.582,8,8,8h8c4.418,0,8-3.582,8-8S220.418,400.067,216,400.067z"/>
	</g>
</g>
<g>
</g>
<g>
</g>
<g>
</g>
<g>
</g>
<g>
</g>
<g>
</g>
<g>
</g>
<g>
</g>
<g>
</g>
<g>
</g>
<g>
</g>
<g>
</g>
<g>
</g>
<g>
</g>
<g>
</g>
</svg>
